<?xml version="1.0" standalone="no"?>
<!DOCTYPE svg PUBLIC "-//W3C//DTD SVG 20010904//EN"
 "http://www.w3.org/TR/2001/REC-SVG-20010904/DTD/svg10.dtd">
<svg version="1.0" xmlns="http://www.w3.org/2000/svg"
 width="4000.000000pt" height="756.000000pt" viewBox="0 0 4000.000000 756.000000"
 preserveAspectRatio="xMidYMid meet">
<metadata>
Created by potrace 1.16, written by Peter Selinger 2001-2019
</metadata>
<g transform="translate(0.000000,756.000000) scale(0.100000,-0.100000)"
fill="#000000" stroke="none">
<path d="M5835 7423 c-11 -3 -24 -9 -29 -14 -6 -5 -18 -9 -28 -9 -11 0 -43
-18 -72 -40 -52 -40 -79 -49 -91 -31 -7 12 -202 12 -224 1 -9 -4 -29 -13 -46
-20 -74 -31 -100 -48 -146 -95 l-50 -49 -82 -2 c-50 -1 -94 -8 -112 -17 -16
-8 -48 -23 -70 -33 -46 -21 -47 -21 -102 -70 -24 -20 -43 -42 -43 -50 0 -7 -8
-18 -17 -23 -10 -6 -15 -11 -10 -11 4 0 0 -11 -9 -25 -14 -21 -24 -25 -66 -25
-128 0 -320 -160 -344 -286 -4 -20 -12 -37 -18 -39 -74 -21 -121 -38 -133 -48
-24 -18 -105 -100 -129 -129 -27 -34 -61 -119 -73 -181 -5 -26 -10 -49 -12
-51 -2 -1 -18 -9 -35 -17 -45 -21 -95 -68 -131 -124 -18 -28 -36 -54 -40 -60
-22 -28 -38 -99 -39 -173 l-1 -83 -51 -50 c-29 -28 -55 -62 -58 -75 -3 -13
-10 -24 -14 -24 -4 0 -13 -21 -20 -47 -7 -27 -17 -53 -21 -58 -13 -18 -8 -185
7 -213 19 -37 18 -45 -10 -71 -13 -12 -34 -43 -47 -68 -22 -43 -24 -58 -24
-197 0 -143 1 -153 24 -184 21 -30 22 -36 10 -60 -8 -15 -18 -30 -24 -34 -16
-11 -13 -340 3 -345 6 -3 12 -11 12 -18 0 -7 16 -34 35 -60 34 -44 35 -48 21
-75 -9 -19 -14 -61 -14 -117 -1 -137 38 -231 129 -314 l40 -35 2 -95 c2 -83 7
-102 36 -163 39 -81 106 -157 172 -193 l47 -25 4 -61 c3 -53 10 -71 45 -122
82 -119 147 -174 234 -199 53 -16 57 -19 66 -55 13 -48 75 -142 116 -177 18
-14 39 -31 48 -38 46 -38 154 -76 214 -76 18 0 28 -9 41 -35 21 -46 85 -117
120 -135 16 -8 36 -21 46 -29 9 -8 27 -16 40 -18 12 -2 26 -9 30 -16 5 -8 40
-12 104 -13 l98 -2 25 -34 c31 -43 95 -92 144 -109 20 -7 37 -15 37 -19 0 -3
17 -6 38 -8 20 -1 39 -7 40 -12 4 -12 132 -13 132 -1 0 5 20 12 45 16 43 6 48
4 83 -29 20 -20 41 -36 48 -36 6 0 26 -8 45 -17 24 -12 68 -18 150 -21 102 -4
120 -2 159 17 24 11 49 21 56 21 7 0 15 6 17 13 4 8 8 9 14 1 23 -30 91 -49
187 -52 98 -4 216 12 216 29 0 5 7 9 15 9 15 0 42 19 75 53 13 14 26 16 59 11
22 -4 41 -10 41 -15 0 -12 137 -12 144 0 3 5 23 12 43 16 47 8 95 30 150 67
23 15 46 28 52 28 6 0 20 14 31 32 18 30 21 31 79 29 33 -1 66 1 73 6 7 4 23
9 35 11 12 1 34 9 49 17 15 8 31 12 36 9 4 -3 8 -1 8 3 0 5 18 19 41 33 43 27
96 85 122 136 14 27 25 34 69 42 100 20 113 25 169 63 66 44 159 143 159 169
0 9 7 23 15 30 8 7 15 18 14 24 -3 28 3 36 26 36 14 0 25 5 25 10 0 6 8 10 18
10 26 0 111 56 152 100 45 49 80 96 80 110 0 5 5 10 10 10 6 0 10 8 10 18 0
10 3 22 7 26 4 3 8 28 10 54 5 61 9 72 28 72 28 0 148 109 165 150 7 17 16 30
21 30 5 0 9 5 9 10 0 6 9 30 20 52 15 32 20 62 20 127 l0 85 38 36 c51 49 67
72 87 117 9 21 21 47 26 58 31 70 36 162 13 248 -8 33 -11 63 -6 66 4 3 26 35
48 70 l39 64 4 125 c3 104 0 131 -15 166 -10 22 -21 43 -24 46 -15 12 -18 40
-7 52 33 33 47 98 47 214 0 133 -7 156 -72 250 -27 39 -27 40 -13 88 8 27 15
70 15 96 0 59 -20 160 -31 160 -5 0 -9 8 -9 19 0 29 -74 134 -109 154 l-31 18
0 98 c0 79 -4 106 -21 142 -40 82 -124 189 -149 189 -5 0 -10 4 -10 8 0 5 -15
14 -34 21 -24 10 -32 19 -29 31 3 10 0 21 -6 24 -6 4 -11 19 -11 33 0 34 -21
103 -32 103 -4 0 -8 7 -8 15 0 13 -121 142 -161 171 -15 11 -62 27 -111 38
-22 5 -28 12 -28 33 0 29 -37 113 -50 113 -4 0 -10 9 -13 19 -5 20 -129 116
-187 145 -19 9 -60 19 -91 23 -55 5 -56 6 -87 58 -18 29 -48 66 -67 81 -20 16
-42 34 -48 40 -7 5 -39 21 -72 34 -33 13 -64 28 -70 32 -5 4 -49 8 -97 8 -48
0 -88 4 -88 9 0 24 -131 131 -160 131 -6 0 -29 9 -50 19 -31 15 -62 19 -135
19 -52 0 -97 -4 -100 -9 -12 -18 -51 -8 -85 21 -19 16 -41 29 -47 30 -7 0 -13
5 -13 10 0 6 -10 10 -23 10 -13 0 -29 6 -35 12 -21 21 -233 24 -273 4 -18 -9
-38 -16 -46 -16 -7 0 -13 -4 -13 -9 0 -17 -41 -23 -58 -9 -45 37 -92 48 -195
47 -56 -1 -111 -3 -122 -6z m262 -69 c35 -17 75 -51 129 -109 94 -102 134
-120 250 -113 l73 5 31 -44 c17 -23 29 -47 25 -52 -8 -14 -107 -41 -149 -41
-117 0 -215 46 -310 147 -89 94 -130 117 -206 111 -31 -2 -75 -14 -99 -25
l-43 -21 -46 31 c-26 17 -49 32 -51 34 -9 7 32 41 80 67 54 30 156 47 224 39
22 -3 63 -16 92 -29z m431 11 c79 -24 128 -68 192 -175 32 -52 70 -104 84
-117 33 -28 152 -65 186 -58 23 5 28 1 48 -45 12 -27 22 -54 22 -59 0 -9 -58
-21 -106 -21 -35 0 -137 31 -181 54 -47 26 -100 80 -134 137 -37 64 -87 130
-109 144 -50 32 -141 43 -197 23 -33 -12 -35 -11 -80 34 l-47 47 55 25 c44 21
69 26 135 26 44 0 103 -7 132 -15z m-941 -83 c35 -11 93 -44 148 -83 l89 -64
86 1 c62 0 94 5 119 18 l33 18 39 -38 c22 -21 39 -42 39 -46 0 -5 -20 -21 -45
-37 -33 -21 -69 -33 -128 -41 -76 -12 -88 -11 -157 10 -41 12 -84 30 -95 40
-11 10 -51 37 -90 61 -63 40 -76 44 -130 43 -63 0 -135 -28 -165 -64 -14 -16
-18 -16 -74 10 l-59 27 42 45 c41 46 103 79 191 104 63 17 90 17 157 -4z
m1398 -19 c66 -22 87 -34 126 -74 26 -27 50 -59 54 -71 3 -13 10 -32 15 -43 5
-11 21 -51 35 -90 14 -38 36 -80 48 -93 30 -33 130 -82 166 -82 25 0 30 -4 36
-37 3 -21 9 -48 12 -60 5 -22 2 -23 -48 -23 -104 1 -219 63 -283 153 -22 32
-41 62 -41 65 -2 18 -31 93 -56 144 -25 49 -36 60 -86 84 -41 20 -75 28 -116
29 l-58 1 -30 48 c-17 26 -28 50 -25 53 12 12 113 30 141 26 17 -3 66 -16 110
-30z m-1806 -170 c110 -50 178 -73 212 -73 47 0 134 32 163 59 21 20 21 20 73
-12 29 -18 53 -35 53 -38 0 -3 -23 -24 -51 -47 -106 -86 -275 -107 -399 -50
-89 42 -138 58 -173 58 -46 0 -131 -45 -166 -87 l-29 -35 -56 13 c-31 7 -59
15 -61 19 -8 12 52 97 86 122 55 41 130 79 173 88 52 10 132 2 175 -17z m2240
-13 c142 -67 182 -122 218 -303 14 -67 33 -133 44 -148 25 -36 85 -80 128 -95
35 -12 36 -13 39 -73 3 -69 4 -69 -72 -46 -59 18 -86 34 -146 91 -58 54 -92
129 -121 263 -16 72 -30 113 -47 133 -30 36 -112 78 -158 82 -19 2 -38 6 -41
10 -8 8 -43 97 -43 109 0 4 30 7 68 7 54 0 79 -6 131 -30z m-1182 -68 c73 -43
108 -52 201 -52 81 0 153 13 179 33 9 6 25 -4 54 -32 23 -22 55 -46 70 -53 16
-7 29 -16 29 -20 0 -3 25 -12 55 -19 30 -7 55 -16 55 -21 0 -4 36 -8 80 -8 47
0 80 4 80 10 0 6 9 10 20 10 11 0 20 -4 20 -8 0 -9 11 -23 66 -84 63 -71 177
-123 297 -135 47 -5 48 -6 76 -61 16 -32 49 -77 74 -101 47 -47 158 -111 192
-111 43 0 65 -13 71 -39 25 -108 36 -131 100 -200 36 -39 72 -71 80 -71 8 0
14 -4 14 -10 0 -5 6 -10 14 -10 8 0 28 -8 45 -17 28 -16 31 -23 31 -65 0 -26
5 -50 10 -53 6 -3 10 -21 10 -39 0 -66 81 -185 168 -245 31 -22 42 -54 22 -66
-5 -3 -10 -37 -10 -75 0 -38 5 -72 10 -75 6 -3 10 -19 10 -34 0 -29 30 -99 58
-133 9 -11 29 -35 43 -52 23 -29 29 -66 9 -66 -19 0 -39 -225 -21 -243 6 -6
11 -26 11 -44 0 -18 5 -33 10 -33 6 0 10 -6 10 -14 0 -7 11 -30 25 -51 23 -32
24 -39 12 -54 -18 -21 -53 -97 -62 -136 -13 -54 -17 -197 -6 -208 6 -6 11 -26
11 -44 0 -18 5 -33 10 -33 21 0 9 -43 -19 -69 -45 -42 -91 -127 -91 -166 0
-19 -4 -35 -10 -35 -6 0 -10 -32 -10 -75 0 -43 4 -75 10 -75 20 0 9 -47 -15
-68 -14 -12 -29 -22 -34 -22 -8 0 -57 -53 -93 -101 -10 -12 -25 -43 -34 -68
-9 -25 -20 -54 -25 -63 -5 -10 -9 -42 -9 -72 l0 -54 -53 -26 -53 -27 -57 31
c-73 40 -151 67 -219 75 -72 8 -190 -23 -282 -75 -63 -36 -67 -37 -36 -11 55
47 150 100 209 117 91 27 193 2 305 -76 25 -16 49 -30 54 -30 15 0 94 108 87
119 -14 24 -175 113 -238 133 -87 26 -214 22 -298 -11 -31 -12 -127 -68 -213
-126 -191 -126 -272 -158 -404 -157 -46 0 -88 4 -93 9 -5 5 23 31 71 63 149
99 280 224 352 336 14 22 45 78 67 122 23 45 42 82 44 82 2 0 37 -18 80 -40
42 -22 81 -40 87 -40 27 0 -2 362 -40 505 -45 168 -89 271 -190 448 -70 125
-101 164 -119 153 -28 -17 -173 -295 -225 -431 -34 -86 -34 -86 -61 -206 -24
-109 -46 -406 -32 -443 6 -14 14 -13 66 14 33 16 64 30 68 30 13 0 -172 -175
-218 -207 -111 -76 -263 -138 -311 -127 -60 13 -113 80 -123 157 -18 143 -26
252 -30 407 -2 102 -7 199 -10 216 -6 28 -4 32 36 49 23 11 59 32 80 47 48 35
63 36 55 4 -5 -20 -1 -26 27 -37 17 -7 52 -35 77 -62 39 -43 50 -49 72 -44 15
4 29 16 33 27 8 25 -11 61 -29 54 -7 -3 -19 2 -26 11 -7 8 -9 15 -4 15 4 0 -2
10 -13 23 -11 12 -25 36 -30 52 -8 25 -15 29 -37 27 -33 -4 -33 12 1 52 38 45
79 137 94 211 13 65 32 84 42 44 5 -20 6 -20 38 -3 25 13 47 15 95 10 67 -7
94 6 94 44 0 27 -14 32 -85 36 -35 1 -77 10 -95 19 -33 17 -34 17 -51 -6 -21
-28 -24 -22 -34 56 -9 67 -40 145 -80 205 -34 50 -34 54 -4 51 10 -1 21 10 28
30 6 17 31 49 56 71 39 34 46 46 43 72 -3 26 -7 31 -34 34 -21 2 -36 -3 -50
-20 l-19 -23 24 20 24 20 -12 -23 c-7 -13 -22 -27 -34 -32 -12 -6 -29 -14 -37
-19 -8 -5 -27 -14 -42 -21 -15 -7 -28 -21 -30 -32 -3 -16 -9 -14 -54 20 -28
21 -71 46 -96 55 l-46 18 -1 102 c-1 56 -3 122 -3 147 -1 25 -1 56 0 70 1 14
-1 44 -4 66 -6 41 -4 43 51 95 32 30 78 85 102 122 44 66 45 70 34 106 -6 21
-11 52 -11 68 0 99 -94 220 -203 261 -155 58 -320 -7 -393 -155 -24 -50 -28
-72 -32 -168 l-4 -110 75 -72 c41 -40 79 -73 83 -73 5 0 8 -101 6 -224 l-3
-224 -45 -12 c-25 -7 -69 -28 -99 -46 -30 -18 -57 -29 -60 -24 -3 5 -19 11
-35 15 -18 4 -45 25 -71 56 -32 38 -47 49 -70 49 -22 0 -32 -6 -38 -22 -10
-25 4 -62 20 -53 5 4 9 -1 9 -9 0 -10 6 -13 15 -10 10 4 15 0 15 -15 0 -12 5
-21 10 -21 6 0 15 -12 20 -27 6 -16 15 -38 21 -50 9 -17 8 -27 -10 -51 -33
-47 -69 -132 -82 -189 -6 -29 -16 -53 -22 -53 -7 0 -25 -7 -41 -15 -21 -11
-45 -14 -90 -9 -53 5 -63 4 -79 -14 -34 -38 6 -87 51 -63 11 6 24 6 33 0 7 -5
24 -9 35 -9 40 0 114 -39 114 -60 0 -36 47 -148 83 -199 42 -58 45 -71 17 -64
-16 4 -23 -2 -34 -29 -8 -18 -35 -52 -60 -75 -49 -44 -52 -53 -36 -84 16 -29
52 -23 86 13 l29 33 -30 -25 -30 -25 24 27 c13 15 27 25 31 23 4 -3 13 1 18 8
6 7 27 19 46 27 30 11 35 17 30 37 -4 13 -4 23 -1 23 3 0 29 -16 59 -35 29
-19 72 -43 96 -52 l44 -16 -6 -306 c-6 -319 -15 -388 -54 -441 -29 -39 -61
-51 -122 -47 -89 5 -263 101 -395 218 -84 75 -168 166 -162 176 3 5 41 10 84
11 42 1 81 6 86 11 5 5 -3 27 -17 50 -15 23 -36 65 -47 94 -11 28 -33 79 -49
113 -50 107 -119 366 -136 509 -4 33 -6 100 -5 149 l1 90 -30 -29 c-62 -59
-217 -327 -250 -430 -7 -22 -16 -44 -20 -50 -19 -26 -76 -269 -90 -385 -13
-111 -13 -257 0 -265 6 -4 46 11 90 34 58 30 81 37 88 28 5 -7 26 -46 48 -87
84 -164 206 -299 378 -418 101 -70 107 -76 85 -85 -13 -4 -58 -9 -99 -9 -121
-1 -225 41 -383 154 -194 138 -344 182 -509 147 -62 -13 -159 -55 -214 -93
-21 -14 -42 -26 -45 -26 -4 0 -9 18 -13 40 -3 22 -10 40 -14 40 -4 0 -14 15
-20 34 -13 35 -85 116 -132 150 -25 17 -26 21 -25 129 0 94 -4 122 -23 174
-13 33 -33 72 -44 85 -12 12 -32 34 -45 48 l-23 26 20 57 c14 39 20 82 20 139
0 99 -10 138 -55 218 -19 33 -30 60 -24 60 5 0 9 5 9 10 0 6 11 27 24 48 34
52 48 111 48 211 0 63 -5 100 -20 136 l-20 51 53 64 c69 83 91 159 82 290 -5
76 -3 90 12 104 10 9 21 16 25 16 14 0 83 78 113 127 38 62 51 104 55 178 l3
60 65 33 c106 54 195 163 223 275 13 51 14 52 58 59 104 18 245 126 290 224
l24 52 70 7 c68 7 155 30 165 45 3 4 19 14 35 23 36 18 123 104 131 129 6 20
68 26 79 8 7 -12 115 -14 115 -2 0 4 27 14 60 21 33 8 60 17 60 21 0 4 15 14
33 21 17 7 49 31 70 52 33 34 42 38 60 29 49 -23 94 -32 163 -32 72 0 174 18
174 30 0 3 16 12 35 20 19 8 35 17 35 22 0 16 41 7 87 -20z m-1061 -103 c27
-11 50 -22 52 -24 2 -2 -10 -24 -28 -49 -80 -111 -256 -172 -387 -133 -29 9
-84 19 -122 23 -64 6 -74 4 -113 -19 -53 -31 -93 -73 -108 -111 -10 -28 -11
-28 -73 -21 -34 3 -63 8 -65 10 -2 1 10 32 26 67 29 65 89 126 172 176 42 25
162 46 188 34 9 -5 60 -19 112 -31 l95 -23 58 22 c33 13 73 37 95 59 20 21 40
39 44 40 3 0 28 -8 54 -20z m2629 -80 c76 -36 153 -108 186 -175 30 -60 31
-67 30 -189 -1 -96 2 -133 14 -159 24 -50 80 -111 115 -126 26 -11 30 -17 26
-39 -2 -14 -7 -42 -11 -63 l-6 -36 -41 16 c-46 18 -137 97 -167 145 -38 62
-52 125 -57 255 -4 113 -8 131 -29 164 -27 41 -104 98 -132 98 -32 0 -43 15
-53 69 -5 30 -10 58 -10 62 0 14 91 -1 135 -22z m-3029 -160 c24 -6 44 -13 44
-16 0 -20 -57 -107 -89 -136 -106 -96 -169 -117 -352 -117 l-127 0 -51 -46
c-35 -32 -56 -61 -68 -95 -19 -52 -21 -54 -96 -64 l-47 -6 6 43 c17 117 122
248 229 288 54 19 71 21 176 15 103 -7 120 -5 160 13 48 22 114 82 124 113 7
22 28 24 91 8z m3401 -183 c42 -21 133 -123 155 -173 30 -68 32 -119 9 -226
-12 -53 -21 -117 -21 -142 0 -54 38 -135 82 -175 l30 -28 -26 -57 -26 -58 -53
46 c-34 29 -66 70 -91 116 -48 91 -57 165 -31 270 9 40 18 100 19 134 1 57 -2
67 -35 112 -19 28 -54 60 -77 73 l-42 23 0 64 0 64 39 -14 c21 -7 52 -20 68
-29z m-3720 -129 c2 -4 -5 -37 -18 -74 -18 -56 -33 -77 -93 -137 -81 -81 -111
-95 -261 -121 -71 -12 -109 -24 -133 -42 -38 -28 -80 -105 -85 -157 -5 -45 -9
-50 -74 -74 l-52 -20 -7 35 c-10 54 3 122 37 189 68 136 126 177 281 200 136
20 176 39 227 106 22 30 41 61 41 69 0 29 24 40 78 37 30 -2 56 -6 59 -11z
m1761 -103 c42 -29 66 -107 44 -141 -6 -10 -17 -8 -47 7 -49 25 -71 25 -117 1
-21 -10 -40 -16 -43 -13 -11 11 -4 84 11 113 8 17 25 34 37 39 35 14 91 11
115 -6z m2246 -168 c56 -39 74 -64 122 -161 51 -104 48 -161 -13 -285 -45 -90
-48 -100 -48 -176 0 -73 3 -85 31 -131 l32 -51 -30 -46 c-17 -25 -34 -46 -38
-46 -18 0 -81 87 -100 139 -26 67 -35 163 -22 216 6 22 28 78 49 125 49 109
51 172 9 240 -15 25 -41 56 -56 70 -28 24 -28 26 -18 83 6 33 15 57 22 57 7 0
34 -15 60 -34z m-2279 4 c14 -15 19 -41 22 -103 3 -59 1 -78 -6 -67 -6 8 -11
29 -11 45 0 17 -4 36 -9 44 -24 37 -31 -34 -31 -292 l0 -265 -47 -4 c-27 -3
-52 -3 -57 0 -4 2 -5 57 -2 121 3 64 9 193 12 286 4 94 9 178 13 187 7 20 69
68 86 68 7 0 20 -9 30 -20z m-2024 -145 c-6 -106 -67 -216 -155 -282 -32 -23
-65 -43 -73 -43 -8 0 -39 -11 -69 -25 -30 -14 -57 -25 -61 -25 -3 0 -21 -11
-39 -25 -44 -34 -78 -122 -71 -188 l4 -49 -54 -35 c-29 -20 -55 -34 -57 -32
-2 2 -8 19 -15 38 -27 80 0 231 55 311 37 55 84 86 196 131 56 22 115 52 131
67 34 33 77 117 77 153 0 33 11 41 65 50 67 11 70 10 66 -46z m4527 -329 c50
-54 66 -85 86 -163 32 -124 17 -192 -71 -308 -33 -44 -65 -90 -71 -102 -19
-35 -15 -163 7 -205 l18 -37 -41 -40 c-23 -23 -45 -41 -49 -41 -4 0 -21 28
-39 63 -30 58 -32 69 -33 162 0 92 2 104 30 157 17 31 52 88 78 126 31 45 51
85 54 110 8 57 -15 138 -49 177 l-29 33 25 56 c14 31 29 56 34 56 5 0 28 -20
50 -44z m-4734 -98 c7 -65 -9 -148 -39 -212 -21 -43 -94 -123 -132 -144 -17
-9 -59 -38 -92 -64 -53 -42 -62 -54 -77 -104 -15 -53 -15 -85 0 -164 4 -20 -4
-33 -39 -64 l-45 -39 -26 57 c-23 51 -26 67 -22 154 5 153 40 206 204 312 109
70 136 112 142 221 l4 66 47 21 c25 12 51 21 57 21 7 1 14 -25 18 -61z m2196
-297 l0 -108 -32 -6 c-18 -4 -43 -9 -54 -12 -19 -6 -22 -2 -27 37 -3 23 -3 74
1 113 7 67 8 70 37 76 78 17 75 21 75 -100z m-294 -81 c7 0 16 -10 20 -22 3
-12 25 -39 47 -59 l40 -38 -16 -38 -15 -38 -83 -6 c-48 -4 -89 -3 -96 3 -7 6
-14 5 -18 -2 -10 -15 -27 -1 -21 18 2 10 11 42 20 72 8 31 30 77 48 104 31 48
32 49 46 28 8 -12 20 -22 28 -22z m2948 -12 c40 -55 58 -109 63 -200 5 -81 4
-90 -25 -151 -23 -49 -50 -84 -112 -143 -46 -44 -89 -94 -97 -113 -10 -23 -14
-63 -12 -122 l3 -89 -39 -30 c-22 -16 -45 -30 -51 -30 -6 0 -19 27 -29 60 -14
45 -17 78 -12 140 7 110 38 168 140 268 43 42 86 91 94 107 23 43 20 145 -6
198 l-21 41 33 48 c17 26 35 48 39 48 4 0 18 -15 32 -32z m-2285 -74 c38 -101
23 -141 -46 -122 -19 5 -55 8 -80 6 -44 -3 -45 -3 -59 37 l-13 41 57 60 c32
34 64 63 72 66 21 8 45 -23 69 -88z m-2683 29 c14 -37 18 -69 17 -138 -4 -124
-33 -183 -148 -295 -52 -52 -89 -97 -96 -118 -15 -45 -6 -133 19 -182 l18 -38
-36 -51 -37 -52 -28 37 c-47 61 -65 124 -65 222 0 118 22 163 130 267 45 44
91 98 101 120 20 44 26 154 9 185 -8 15 -2 24 38 53 26 20 50 36 53 36 4 1 15
-20 25 -46z m2349 -34 c71 -19 125 -88 125 -159 0 -17 -9 -48 -20 -70 -54
-106 -202 -121 -274 -27 -68 90 -29 213 80 252 48 17 41 17 89 4z m-311 -193
l58 -1 16 -39 15 -39 -36 -29 c-20 -16 -46 -45 -57 -64 -41 -66 -93 -32 -134
90 -20 60 -21 90 -1 83 8 -4 17 -1 21 4 4 6 17 8 33 3 14 -4 52 -8 85 -8z
m654 -5 c17 -1 15 -22 -7 -86 -38 -109 -86 -144 -115 -86 -8 15 -31 42 -51 60
-35 31 -36 33 -24 69 6 20 13 39 14 42 3 4 142 5 183 1z m-1463 -53 c2 -7 6
-44 9 -83 6 -71 13 -118 23 -145 3 -8 7 -30 9 -49 2 -18 10 -58 19 -88 9 -30
14 -57 12 -60 -7 -6 -42 91 -62 168 -35 139 -48 154 -80 95 l-19 -35 34 -103
c33 -104 124 -317 154 -363 22 -33 62 -59 81 -51 14 5 14 9 0 42 -18 44 -19
49 -2 32 30 -31 58 -80 54 -92 -3 -8 -21 -14 -44 -14 -68 -1 -278 -59 -368
-101 -48 -23 -90 -41 -92 -41 -9 0 0 179 14 270 28 186 82 340 188 537 49 91
62 105 70 81z m2248 -150 c59 -102 124 -294 151 -448 29 -165 29 -173 15 -168
-8 3 -14 9 -14 14 -7 113 -102 445 -144 499 -10 12 -51 122 -51 135 0 22 20 7
43 -32z m-3487 -75 c20 -41 25 -69 26 -140 2 -101 -19 -166 -75 -237 -73 -91
-87 -122 -87 -186 0 -65 19 -122 52 -157 l21 -22 -23 -56 c-12 -30 -26 -55
-30 -55 -17 0 -71 54 -94 94 -13 22 -34 76 -46 119 -34 122 -20 172 88 319
l67 92 0 81 c0 57 -5 90 -18 114 l-17 35 42 43 c49 50 51 49 94 -44z m5015 25
c21 -45 24 -66 23 -152 -1 -82 -5 -109 -23 -143 -33 -67 -74 -107 -175 -172
-51 -33 -101 -72 -110 -86 -23 -35 -49 -142 -42 -175 5 -25 1 -30 -52 -53
l-57 -26 -9 32 c-12 48 -1 155 23 219 26 68 92 138 200 212 103 71 115 90 119
185 3 48 -1 87 -8 101 -10 20 -7 26 32 65 23 24 46 44 49 44 3 1 16 -22 30
-51z m-2784 -505 c-4 -153 -11 -322 -17 -377 -15 -146 -22 -594 -10 -631 11
-34 45 -61 55 -44 4 5 7 252 7 548 l-1 539 30 -11 29 -11 0 -316 c1 -173 1
-373 2 -445 1 -290 -2 -435 -12 -435 -5 0 -38 25 -72 56 -73 66 -203 164 -216
164 -5 0 -15 7 -22 15 -7 9 -64 49 -127 90 -62 42 -123 86 -135 100 -12 14
-29 25 -39 25 -22 0 -64 27 -192 121 -114 85 -193 164 -254 254 -37 56 -103
187 -103 206 0 4 16 12 36 18 l35 10 136 -139 c129 -133 208 -196 343 -272 66
-37 174 -78 206 -78 38 0 26 9 -96 72 -194 100 -343 221 -461 374 -44 58 -46
64 -20 64 11 0 34 -20 54 -47 89 -120 284 -276 443 -354 91 -45 109 -50 172
-51 118 -2 149 35 162 197 5 55 13 154 19 220 5 66 13 186 17 268 5 123 9 147
22 147 13 0 14 -31 9 -277z m-2184 49 c35 -44 68 -126 81 -199 8 -47 -11 -142
-40 -203 -61 -126 -68 -185 -32 -257 12 -25 39 -60 59 -78 l37 -33 -15 -61
-15 -61 -37 22 c-65 38 -103 82 -142 162 -33 69 -39 90 -39 146 0 60 6 79 50
173 33 70 50 119 50 144 0 49 -25 131 -50 165 -11 15 -20 30 -20 33 0 10 63
95 69 95 3 -1 23 -22 44 -48z m4906 -77 c12 -52 12 -66 -4 -133 -35 -151 -89
-208 -258 -276 -59 -24 -116 -51 -127 -61 -28 -26 -80 -133 -80 -166 0 -29 0
-29 -92 -45 -44 -7 -43 -8 -27 82 14 77 67 172 127 224 48 43 56 48 175 95 37
15 79 36 92 47 43 34 68 95 70 171 l1 68 45 30 c24 16 49 27 54 26 6 -2 16
-30 24 -62z m-2497 -308 c4 -100 9 -133 26 -168 54 -110 176 -126 355 -48 77
34 143 76 276 176 46 35 87 60 90 57 10 -10 -122 -128 -222 -198 -103 -72
-187 -114 -281 -141 -104 -30 -184 1 -229 91 -26 51 -51 374 -28 360 4 -3 10
-61 13 -129z m-2253 -63 c75 -68 121 -165 123 -264 0 -41 -6 -106 -15 -145
-25 -108 -22 -155 12 -201 33 -46 82 -90 111 -99 17 -5 20 -15 20 -71 0 -44
-4 -64 -12 -64 -7 0 -40 13 -74 29 -63 30 -139 104 -174 172 -21 41 -44 154
-34 170 10 17 44 180 44 214 0 41 -54 149 -86 174 -27 21 -27 28 2 98 8 18 18
33 23 33 5 0 32 -21 60 -46z m4581 -122 c0 -59 -5 -79 -39 -148 -67 -138 -130
-181 -309 -207 -71 -11 -113 -22 -135 -37 -40 -28 -96 -100 -106 -137 -7 -27
-10 -28 -67 -28 l-59 0 3 35 c6 52 37 109 94 172 61 66 133 106 216 118 115
17 164 32 197 61 40 36 67 89 75 148 5 43 7 46 60 67 30 13 58 23 63 24 4 0 7
-31 7 -68z m-3985 -103 c71 -13 157 -55 243 -117 66 -49 84 -69 30 -33 -191
126 -392 145 -569 55 -62 -31 -74 -26 -21 8 62 42 124 71 177 84 65 16 70 16
140 3z m-370 -165 c51 -25 105 -78 149 -146 30 -46 46 -128 46 -242 0 -98 3
-114 24 -151 28 -46 91 -95 145 -110 33 -10 36 -14 47 -70 7 -33 10 -62 8 -64
-2 -3 -32 1 -66 7 -102 19 -211 105 -257 202 -23 49 -27 71 -31 195 -4 123 -8
144 -28 177 -22 35 -70 82 -106 103 -15 9 -17 19 -11 68 4 31 12 57 17 57 5 0
34 -12 63 -26z m812 -73 c156 -79 320 -90 485 -32 95 34 102 36 93 21 -9 -15
-110 -64 -173 -85 -142 -46 -308 -4 -482 121 -56 40 -67 56 -17 26 17 -11 60
-34 94 -51z m2279 45 c-15 -13 -63 -44 -105 -68 -192 -114 -346 -121 -536 -25
-79 39 -55 46 43 12 170 -60 348 -42 525 54 105 56 113 59 73 27z m-2621 -40
c39 -18 105 -58 148 -88 164 -119 339 -188 472 -188 114 0 282 56 389 129 42
29 77 40 76 24 -1 -5 -15 -17 -33 -29 -18 -11 -66 -43 -107 -71 -179 -122
-336 -147 -500 -81 -59 23 -116 57 -255 152 -47 32 -121 73 -163 90 -71 28
-86 31 -200 31 -105 0 -125 2 -133 17 -11 20 -4 26 60 44 71 21 163 9 246 -30z
m3134 9 c34 -15 61 -30 61 -33 0 -3 -7 -10 -17 -17 -13 -9 -27 -9 -66 3 -33 9
-79 13 -136 10 -75 -3 -98 -9 -165 -41 -43 -20 -99 -51 -125 -69 -163 -111
-208 -139 -266 -162 -135 -54 -263 -53 -396 3 -66 28 -258 149 -259 164 0 14
31 7 68 -17 179 -113 371 -151 540 -107 105 27 198 74 332 166 58 39 121 80
140 90 100 52 188 55 289 10z m491 -83 c0 -103 -95 -239 -206 -293 l-65 -32
-126 6 c-97 5 -134 3 -160 -8 -49 -21 -119 -81 -133 -115 -10 -25 -16 -29 -39
-24 -38 8 -91 25 -91 29 0 1 7 19 15 39 33 79 145 172 235 196 25 7 104 13
177 14 131 1 131 1 170 32 46 38 91 100 95 134 3 22 11 27 58 37 30 6 58 12
63 12 4 1 7 -12 7 -27z m-1730 -334 c90 -51 189 -80 292 -86 147 -7 246 18
398 102 53 29 59 31 35 11 -53 -45 -158 -104 -235 -131 -58 -20 -94 -26 -160
-26 -130 0 -230 40 -401 158 -117 82 -187 116 -211 103 -17 -9 -18 -8 -9 9 6
11 16 22 23 24 7 3 60 -28 118 -67 58 -39 125 -83 150 -97z m-2039 131 c39
-10 136 -80 168 -120 37 -48 64 -115 83 -208 10 -52 25 -109 33 -126 22 -53
128 -115 196 -115 16 0 29 -5 29 -11 0 -5 9 -31 21 -56 11 -25 18 -47 15 -50
-10 -11 -123 -6 -161 7 -56 18 -156 83 -181 117 -41 55 -61 109 -74 193 -7 47
-20 104 -30 126 -20 47 -103 119 -149 129 -24 5 -30 12 -35 43 -3 20 -6 50 -6
66 0 31 -5 31 91 5z m1159 -99 c-58 -48 -162 -106 -241 -135 -135 -49 -290
-30 -424 52 -144 90 -184 129 -57 58 42 -24 106 -53 142 -65 90 -30 225 -37
314 -16 68 16 203 75 261 114 43 29 45 26 5 -8z m368 -37 l20 -28 -76 -17
c-122 -26 -183 -53 -315 -142 -174 -118 -201 -131 -247 -117 -21 6 -59 12 -86
12 -27 1 -38 4 -24 6 168 29 268 71 420 175 105 72 165 105 225 124 57 18 61
17 83 -13z m211 -8 c30 -14 99 -56 155 -93 56 -38 121 -80 146 -94 59 -33 172
-73 234 -82 57 -9 51 -20 -22 -35 -50 -10 -56 -9 -115 20 -34 18 -105 61 -157
97 -138 95 -203 124 -342 156 -25 6 -26 8 -16 31 15 32 47 32 117 0z m1691
-31 c0 -8 -12 -40 -26 -70 -20 -43 -43 -69 -100 -114 -40 -32 -90 -64 -111
-71 -56 -19 -135 -15 -250 12 -99 23 -102 23 -156 6 -32 -10 -73 -34 -101 -58
l-46 -41 -55 22 -55 22 22 30 c39 56 84 93 154 127 60 30 79 35 144 35 41 0
117 -10 170 -22 80 -18 100 -20 134 -10 43 13 146 106 146 132 0 13 12 16 65
16 52 0 65 -3 65 -16z m-2943 -139 c60 -31 88 -53 124 -98 26 -32 49 -72 53
-89 10 -49 57 -151 85 -180 33 -37 123 -70 180 -66 44 2 46 1 78 -50 l34 -52
-28 -11 c-52 -21 -152 -15 -233 14 -63 22 -84 35 -130 85 -40 42 -60 73 -72
112 -31 103 -49 145 -76 173 -33 35 -91 66 -152 82 -40 10 -45 15 -51 46 -3
19 -9 45 -13 58 -8 23 -8 23 58 19 51 -3 82 -12 143 -43z m1184 -29 c25 -8 70
-26 100 -41 56 -29 179 -112 179 -122 0 -3 -10 2 -22 10 -207 146 -445 163
-654 45 -83 -46 -75 -32 15 27 46 31 112 64 145 75 72 23 173 25 237 6z m1306
-123 c24 -3 43 -11 43 -18 0 -30 -68 -110 -124 -147 -80 -52 -153 -72 -229
-64 -33 3 -65 10 -71 15 -21 17 -194 81 -218 81 -38 0 -139 -38 -165 -61 l-22
-22 -51 33 c-27 18 -50 35 -50 39 0 4 23 26 51 49 113 92 259 104 419 35 113
-48 162 -53 233 -20 31 14 67 40 83 61 18 22 35 34 44 31 8 -3 33 -9 57 -12z
m-2086 -22 c36 -10 80 -26 98 -36 40 -20 121 -93 121 -109 1 -6 24 -45 53 -86
38 -55 64 -81 97 -97 48 -25 129 -31 176 -13 26 10 32 7 73 -35 52 -52 52 -51
-39 -86 -45 -17 -68 -20 -125 -15 -154 13 -213 50 -295 186 -32 52 -72 107
-89 122 -35 31 -116 58 -175 58 -40 0 -41 1 -62 55 l-22 55 27 6 c14 3 31 7
36 9 24 8 65 4 126 -14z m536 -112 c60 -13 116 -52 205 -142 43 -42 89 -82
103 -87 45 -17 132 -12 185 11 l50 21 50 -32 c27 -18 47 -36 44 -41 -15 -24
-100 -71 -155 -85 -145 -37 -245 -3 -367 128 -42 44 -90 87 -107 94 -46 19
-137 27 -178 16 -35 -10 -36 -10 -71 43 l-35 54 47 15 c80 26 133 27 229 5z
m546 -7 c28 -11 94 -47 146 -80 81 -54 99 -62 141 -62 61 0 106 15 153 52 l38
30 54 -23 c30 -12 55 -27 55 -33 0 -5 -22 -31 -49 -57 -40 -39 -65 -53 -131
-73 -140 -45 -195 -34 -345 70 l-100 69 -75 -1 c-44 -1 -91 -8 -114 -18 l-39
-16 -42 37 c-24 21 -44 41 -44 45 -2 10 90 58 129 68 64 15 168 11 223 -8z"/>
<path d="M6080 5022 c-19 -9 -45 -33 -58 -52 -20 -29 -23 -44 -20 -88 4 -45
10 -59 41 -89 30 -31 44 -37 90 -41 66 -5 106 13 137 63 30 49 25 133 -11 171
-48 53 -118 67 -179 36z m73 -132 l2 -112 -35 6 c-51 8 -80 46 -80 105 0 58
26 97 73 109 18 5 33 8 35 6 2 -1 4 -52 5 -114z"/>
<path d="M12327 5453 c-4 -3 -7 -714 -7 -1580 l0 -1573 210 0 210 0 0 579 0
580 263 3 c245 3 266 5 319 26 99 40 165 121 206 255 24 77 31 1259 8 1378
-39 208 -138 307 -327 329 -94 11 -872 14 -882 3z m769 -450 c12 -7 26 -20 30
-30 11 -21 18 -894 9 -972 -5 -37 -14 -61 -30 -77 -23 -23 -29 -24 -195 -24
l-170 0 0 561 0 561 168 -4 c104 -2 175 -8 188 -15z"/>
<path d="M14107 5453 c-4 -3 -7 -714 -7 -1580 l0 -1573 210 0 210 0 0 615 0
615 68 0 67 0 155 -553 c85 -303 162 -580 173 -615 l18 -62 219 0 c121 0 220
4 220 8 0 4 -83 282 -185 617 -102 336 -185 612 -185 615 0 3 19 13 43 23 93
38 153 112 191 236 19 63 20 96 24 654 2 493 1 601 -12 668 -39 208 -138 307
-327 329 -94 11 -872 14 -882 3z m769 -450 c12 -7 26 -20 30 -30 10 -21 18
-845 9 -921 -11 -90 -16 -92 -220 -92 l-175 0 0 531 0 531 168 -4 c104 -2 175
-8 188 -15z"/>
<path d="M16259 5450 c-173 -21 -274 -123 -315 -321 -12 -60 -14 -246 -12
-1287 l3 -1217 22 -65 c43 -126 110 -200 216 -237 46 -16 89 -18 372 -18 309
0 322 1 376 23 113 46 183 138 214 287 23 108 22 2411 0 2521 -22 103 -47 156
-100 213 -57 61 -121 89 -228 101 -96 11 -452 11 -548 0z m438 -448 c12 -7 27
-29 33 -50 8 -26 10 -357 8 -1100 l-3 -1064 -28 -24 c-27 -23 -35 -24 -167
-24 -132 0 -140 1 -167 24 l-28 24 -3 1049 c-2 576 0 1067 3 1089 8 54 23 74
65 84 49 13 260 6 287 -8z"/>
<path d="M17790 3880 l0 -1581 488 3 c552 4 540 2 632 85 53 47 98 128 121
218 16 64 26 2333 10 2461 -25 205 -99 315 -246 369 -45 17 -97 19 -527 23
l-478 4 0 -1582z m812 1132 l23 -23 3 -1087 c2 -730 0 -1099 -7 -1123 -16 -54
-37 -59 -241 -59 l-180 0 0 1153 c0 635 3 1157 8 1161 4 5 89 6 189 4 174 -3
184 -4 205 -26z"/>
<path d="M19976 5448 c-3 -7 -104 -704 -226 -1548 -121 -844 -223 -1550 -226
-1568 l-6 -32 206 0 c205 0 206 0 210 22 5 24 76 609 76 628 0 6 85 10 249 10
l248 0 5 -32 c3 -18 23 -167 44 -330 l39 -298 208 0 c159 0 207 3 207 13 -1 6
-108 716 -239 1577 l-237 1565 -277 3 c-217 2 -278 0 -281 -10z m379 -1319
c52 -400 95 -729 95 -733 0 -3 -85 -6 -190 -6 -178 0 -190 1 -190 19 0 14 177
1450 181 1471 3 14 15 -73 104 -751z"/>
<path d="M21507 5453 c-4 -3 -7 -714 -7 -1580 l0 -1573 185 0 185 0 1 1098 1
1097 142 -715 c79 -393 146 -732 150 -752 l7 -38 168 0 169 0 148 748 149 747
3 -1092 2 -1093 180 0 180 0 0 1580 0 1580 -224 0 -224 0 -10 -47 c-6 -27 -90
-439 -187 -918 -97 -478 -179 -878 -183 -887 -4 -11 -85 368 -196 910 -103
510 -190 930 -193 935 -5 9 -437 10 -446 0z"/>
<path d="M23817 5453 c-4 -3 -7 -714 -7 -1580 l0 -1573 185 0 185 0 1 1098 1
1097 142 -715 c79 -393 146 -732 150 -752 l7 -38 168 0 169 0 148 748 149 747
3 -1092 2 -1093 180 0 180 0 0 1580 0 1580 -224 0 -224 0 -10 -47 c-6 -27 -90
-439 -187 -918 -97 -478 -179 -878 -183 -887 -4 -11 -85 368 -196 910 -103
510 -190 930 -193 935 -5 9 -437 10 -446 0z"/>
<path d="M26436 5448 c-3 -7 -104 -704 -226 -1548 -121 -844 -223 -1550 -226
-1568 l-6 -32 206 0 c205 0 206 0 210 22 5 24 76 609 76 628 0 6 85 10 249 10
l248 0 5 -32 c3 -18 23 -167 44 -330 l39 -298 208 0 c159 0 207 3 207 13 -1 6
-108 716 -239 1577 l-237 1565 -277 3 c-217 2 -278 0 -281 -10z m379 -1319
c52 -400 95 -729 95 -733 0 -3 -85 -6 -190 -6 -178 0 -190 1 -190 19 0 14 177
1450 181 1471 3 14 15 -73 104 -751z"/>
<path d="M27967 5453 c-4 -3 -7 -714 -7 -1580 l0 -1573 463 0 c504 0 540 3
621 57 57 37 85 71 118 140 52 109 57 173 58 658 0 251 -5 468 -10 505 -13 82
-60 178 -100 209 l-31 23 45 48 c34 36 50 66 68 121 23 73 23 80 23 559 0 439
-2 491 -18 549 -51 180 -144 261 -320 281 -92 11 -900 14 -910 3z m799 -430
c41 -23 44 -58 44 -453 0 -388 -4 -431 -40 -450 -10 -6 -102 -10 -204 -10
l-186 0 0 466 0 466 183 -4 c118 -2 190 -8 203 -15z m0 -1350 c12 -7 27 -27
33 -44 15 -43 15 -814 1 -856 -17 -47 -43 -53 -240 -53 l-180 0 0 486 0 486
183 -4 c118 -2 190 -8 203 -15z"/>
<path d="M30146 5448 c-3 -7 -104 -704 -226 -1548 -121 -844 -223 -1550 -226
-1568 l-6 -32 206 0 c205 0 206 0 210 22 5 24 76 609 76 628 0 6 85 10 249 10
l248 0 5 -32 c3 -18 23 -167 44 -330 l39 -298 208 0 c159 0 207 3 207 13 -1 6
-108 716 -239 1577 l-237 1565 -277 3 c-217 2 -278 0 -281 -10z m379 -1319
c52 -400 95 -729 95 -733 0 -3 -85 -6 -190 -6 -178 0 -190 1 -190 19 0 14 177
1450 181 1471 3 14 15 -73 104 -751z"/>
<path d="M32789 5450 c-92 -11 -160 -43 -214 -101 -101 -108 -115 -178 -115
-606 l0 -333 205 0 205 0 0 264 c0 146 4 276 10 290 15 41 46 51 152 51 151
-1 143 16 143 -308 0 -279 -7 -347 -52 -492 -14 -44 -166 -398 -339 -788
l-314 -707 0 -210 0 -210 565 0 565 0 0 220 0 220 -320 0 c-176 0 -320 2 -320
5 0 4 360 879 500 1215 40 98 76 216 102 337 28 137 39 694 14 822 -40 212
-139 311 -334 332 -102 10 -358 10 -453 -1z"/>
<path d="M34469 5450 c-174 -22 -274 -124 -315 -321 -12 -60 -14 -246 -12
-1287 l3 -1217 22 -65 c43 -126 110 -200 216 -237 46 -16 89 -18 362 -18 301
0 312 1 367 23 112 45 181 143 213 297 14 71 15 210 13 1290 l-3 1210 -23 67
c-43 126 -121 211 -225 244 -41 13 -105 17 -302 19 -137 2 -280 0 -316 -5z
m419 -449 c12 -6 25 -24 29 -39 5 -15 8 -510 8 -1100 l0 -1074 -28 -24 c-27
-23 -35 -24 -158 -24 -125 0 -131 1 -154 25 l-25 24 0 1080 c0 804 3 1087 12
1106 6 14 23 28 37 31 14 3 31 8 36 10 21 8 223 -4 243 -15z"/>
<path d="M36209 5450 c-92 -11 -160 -43 -214 -101 -101 -108 -115 -178 -115
-606 l0 -333 205 0 205 0 0 264 c0 146 4 276 10 290 15 41 46 51 152 51 151
-1 143 16 143 -308 0 -279 -7 -347 -52 -492 -14 -44 -166 -398 -339 -788
l-314 -707 0 -210 0 -210 565 0 565 0 0 220 0 220 -320 0 c-176 0 -320 2 -320
5 0 4 360 879 500 1215 40 98 76 216 102 337 28 137 39 694 14 822 -40 212
-139 311 -334 332 -102 10 -358 10 -453 -1z"/>
<path d="M37899 5450 c-174 -22 -274 -124 -315 -321 -12 -60 -14 -246 -12
-1287 l3 -1217 22 -65 c43 -126 110 -200 216 -237 46 -16 89 -18 362 -18 301
0 312 1 367 23 112 45 181 143 213 297 14 71 15 210 13 1290 l-3 1210 -23 67
c-43 126 -121 211 -225 244 -41 13 -105 17 -302 19 -137 2 -280 0 -316 -5z
m419 -449 c12 -6 25 -24 29 -39 5 -15 8 -510 8 -1100 l0 -1074 -28 -24 c-27
-23 -35 -24 -158 -24 -125 0 -131 1 -154 25 l-25 24 0 1080 c0 804 3 1087 12
1106 6 14 23 28 37 31 14 3 31 8 36 10 21 8 223 -4 243 -15z"/>
<path d="M3060 1890 l0 -70 1255 0 1255 0 0 70 0 70 -1255 0 -1255 0 0 -70z"/>
<path d="M7024 1946 c-3 -7 -4 -38 -2 -67 l3 -54 1258 -3 1257 -2 0 70 0 70
-1255 0 c-1054 0 -1256 -2 -1261 -14z"/>
<path d="M3060 1755 l0 -35 1255 0 1255 0 0 35 0 35 -1255 0 -1255 0 0 -35z"/>
<path d="M7022 1758 l3 -33 1258 -3 1257 -2 0 35 0 35 -1261 0 -1260 0 3 -32z"/>
<path d="M4416 1576 c-73 -31 -134 -90 -172 -164 -26 -52 -29 -66 -29 -162 0
-120 16 -164 86 -244 60 -67 136 -101 229 -100 91 0 155 25 219 87 141 136
143 370 4 513 -87 90 -223 118 -337 70z m205 -139 c18 -12 47 -42 64 -66 27
-38 30 -50 30 -114 -1 -134 -72 -217 -187 -217 -136 0 -225 177 -158 316 33
68 88 104 160 104 43 0 65 -6 91 -23z"/>
<path d="M5801 1590 c-17 -11 -251 -624 -251 -656 0 -11 16 -14 69 -14 76 0
66 -9 103 95 l14 40 119 3 c73 2 122 -1 129 -8 6 -6 20 -36 31 -68 l20 -57 73
-3 c59 -2 72 0 72 12 0 16 -222 591 -245 635 -11 21 -19 24 -70 25 -31 1 -60
-1 -64 -4z m84 -242 c44 -109 55 -152 43 -160 -17 -10 -135 -10 -142 0 -6 10
64 202 74 202 5 0 16 -19 25 -42z"/>
<path d="M7971 1590 c-18 -13 -251 -621 -251 -656 0 -11 16 -14 69 -14 76 0
66 -9 103 95 l14 40 119 3 c73 2 122 -1 129 -8 6 -6 20 -36 31 -68 l20 -57 73
-3 c59 -2 72 0 72 12 0 16 -230 609 -249 643 -7 14 -22 18 -66 18 -31 0 -60
-2 -64 -5z m87 -252 c45 -111 53 -141 40 -150 -18 -11 -135 -10 -142 1 -7 10
63 201 74 201 3 0 16 -24 28 -52z"/>
<path d="M9210 1590 c-19 -12 -250 -614 -250 -652 0 -16 9 -18 69 -18 l69 0
23 68 24 67 123 3 122 3 15 -36 c8 -19 22 -51 30 -70 15 -35 15 -35 79 -35 36
0 68 5 71 10 5 9 -217 598 -246 650 -5 11 -24 15 -64 15 -31 0 -60 -2 -65 -5z
m104 -299 c28 -73 34 -96 24 -103 -18 -11 -136 -10 -143 1 -7 13 67 213 76
204 4 -5 24 -50 43 -102z"/>
<path d="M3718 1583 l-68 -4 0 -330 0 -330 73 3 72 3 -4 108 -3 108 67 -3 67
-3 40 -95 c22 -52 45 -101 50 -107 12 -14 144 -18 152 -5 3 5 -20 62 -50 127
l-55 118 34 36 c50 52 59 76 60 155 0 103 -38 166 -123 203 -37 16 -190 24
-312 16z m235 -130 c37 -7 59 -42 59 -99 0 -77 -54 -109 -168 -97 l-54 6 0 98
c0 93 1 98 23 102 22 5 89 0 140 -10z"/>
<path d="M6261 1581 l-24 -7 0 -324 0 -325 69 0 69 0 3 160 3 160 68 -158 c37
-87 72 -162 78 -168 6 -6 29 -9 53 -7 l42 3 64 159 c35 87 66 161 68 164 3 3
5 -67 3 -154 l-2 -159 70 0 70 0 0 325 0 324 -45 8 c-82 15 -77 22 -179 -237
-51 -130 -94 -235 -95 -233 -2 2 -40 89 -86 193 -125 289 -123 285 -168 284
-20 -1 -48 -4 -61 -8z"/>
<path d="M7023 1583 l-21 -4 0 -330 0 -330 66 3 67 3 5 160 c5 142 7 157 18
130 7 -16 39 -91 71 -165 l58 -135 49 0 49 0 67 165 68 165 -1 -152 c-1 -84 2
-157 6 -162 8 -14 132 -14 137 -1 2 5 2 153 0 329 l-3 318 -55 7 c-33 4 -61 2
-68 -3 -7 -6 -52 -112 -101 -236 -48 -124 -91 -225 -94 -225 -3 0 -26 46 -50
103 -25 56 -71 162 -104 235 l-59 132 -42 -1 c-22 -1 -51 -4 -63 -6z"/>
<path d="M3043 1253 l2 -328 73 -3 72 -3 0 85 0 85 79 -6 c121 -8 184 9 240
66 52 52 71 100 71 181 0 73 -17 123 -59 171 -60 71 -89 79 -298 79 l-181 0 1
-327z m345 191 c49 -32 66 -121 34 -184 -25 -50 -53 -61 -152 -58 l-85 3 0
125 0 125 50 6 c65 9 124 2 153 -17z"/>
<path d="M4938 1573 c-2 -4 -4 -152 -4 -328 l1 -320 179 -3 c176 -2 181 -2
233 23 60 30 111 87 144 160 18 40 23 69 23 145 1 82 -3 103 -25 150 -36 77
-79 123 -141 151 -48 22 -70 24 -229 27 -97 2 -179 0 -181 -5z m339 -130 c100
-47 134 -207 68 -319 -40 -68 -73 -84 -176 -84 l-86 0 -7 106 c-8 125 2 306
18 317 17 12 145 -1 183 -20z"/>
<path d="M8410 1576 c-3 -2 -5 -150 -4 -328 l0 -323 188 -3 c184 -2 189 -2
230 22 107 63 129 242 39 313 -12 10 -11 17 14 54 39 59 39 141 1 191 -49 64
-80 73 -283 76 -99 2 -183 1 -185 -2z m315 -118 c26 -12 50 -59 42 -82 -15
-39 -133 -69 -202 -52 -27 7 -27 8 -23 72 3 42 9 69 19 75 17 12 129 3 164
-13z m25 -268 c42 -23 35 -114 -10 -137 -16 -8 -56 -12 -110 -11 l-85 3 -3 77
c-3 73 -2 77 20 82 35 7 166 -2 188 -14z"/>
<path d="M5727 676 c-20 -8 -43 -19 -51 -25 -19 -16 -48 -79 -42 -90 3 -5 26
-14 52 -20 40 -10 48 -10 59 5 15 21 45 12 45 -14 0 -10 -34 -58 -76 -107 -67
-79 -75 -92 -72 -124 l3 -36 132 -3 c132 -3 132 -3 138 21 4 13 5 39 3 58 -3
33 -4 34 -51 37 l-48 3 34 42 c19 23 40 53 47 66 17 33 14 108 -5 137 -33 51
-105 72 -168 50z"/>
<path d="M6082 680 c-77 -17 -126 -99 -126 -211 -1 -103 29 -164 97 -198 39
-19 56 -22 95 -16 122 18 184 199 115 336 -39 75 -103 106 -181 89z m73 -140
c22 -24 25 -102 6 -137 -15 -30 -55 -30 -75 -1 -9 12 -16 43 -16 68 0 78 45
114 85 70z"/>
<path d="M6416 680 c-50 -15 -114 -91 -98 -117 4 -6 27 -16 51 -23 39 -10 47
-10 57 4 15 21 40 20 48 0 7 -18 -12 -46 -98 -142 -50 -56 -57 -68 -54 -100
l3 -37 135 0 135 0 0 55 0 55 -42 3 c-24 2 -43 5 -43 8 0 3 16 26 34 50 47 62
60 103 47 152 -13 46 -45 79 -92 92 -39 11 -44 11 -83 0z"/>
<path d="M6771 679 c-82 -17 -134 -98 -134 -208 0 -145 90 -241 203 -216 45
10 96 59 116 110 24 64 16 188 -15 239 -38 62 -102 90 -170 75z m56 -127 c34
-22 40 -135 8 -162 -21 -18 -58 -8 -73 20 -15 30 -11 112 8 135 13 16 38 19
57 7z"/>
<path d="M3070 475 l0 -35 1258 2 1257 3 3 33 3 32 -1260 0 -1261 0 0 -35z"/>
<path d="M7022 478 l3 -33 1258 -3 1257 -2 0 35 0 35 -1261 0 -1260 0 3 -32z"/>
<path d="M3070 345 l0 -65 1260 0 1260 0 0 65 0 65 -1260 0 -1260 0 0 -65z"/>
<path d="M7020 345 l0 -65 1260 0 1260 0 0 65 0 65 -1260 0 -1260 0 0 -65z"/>
</g>
</svg>
