<?xml version="1.0" standalone="no"?>
<!DOCTYPE svg PUBLIC "-//W3C//DTD SVG 20010904//EN"
 "http://www.w3.org/TR/2001/REC-SVG-20010904/DTD/svg10.dtd">
<svg version="1.0" xmlns="http://www.w3.org/2000/svg"
 width="1638.000000pt" height="246.000000pt" viewBox="0 0 1638.000000 246.000000"
 preserveAspectRatio="xMidYMid meet">
<metadata>
Created by potrace 1.16, written by Peter Selinger 2001-2019
</metadata>
<g transform="translate(0.000000,246.000000) scale(0.100000,-0.100000)"
fill="#000000" stroke="none">
<path d="M220 1206 l0 -946 125 0 125 0 0 349 0 350 173 3 c171 3 174 3 216
31 31 20 50 45 69 85 l27 57 0 420 0 420 -28 58 c-20 40 -42 66 -70 85 l-40
27 -299 3 -298 3 0 -945z m474 668 c14 -13 16 -56 16 -319 0 -263 -2 -306 -16
-319 -12 -13 -38 -16 -120 -16 l-104 0 0 335 0 335 104 0 c82 0 108 -3 120
-16z"/>
<path d="M1290 1206 l0 -946 125 0 125 0 0 371 0 370 42 -3 42 -3 22 -75 c13
-41 59 -207 104 -368 l82 -292 133 0 133 0 -34 113 c-18 61 -69 229 -112 371
l-79 260 40 20 c49 24 92 89 107 162 7 34 10 180 8 421 l-3 368 -28 58 c-20
40 -42 66 -70 85 l-40 27 -299 3 -298 3 0 -945z m474 668 c14 -13 16 -55 16
-301 0 -253 -2 -289 -17 -305 -14 -15 -32 -18 -120 -18 l-103 0 0 320 0 320
104 0 c82 0 108 -3 120 -16z"/>
<path d="M2525 2131 c-23 -10 -53 -33 -68 -50 -57 -68 -57 -67 -57 -876 0
-833 -2 -813 70 -885 54 -54 103 -63 325 -58 201 3 221 9 276 78 58 72 59 85
59 865 0 770 -1 785 -55 866 -43 66 -73 74 -305 77 -182 2 -209 0 -245 -17z
m339 -257 c14 -14 16 -88 16 -669 l0 -655 -25 -16 c-30 -20 -176 -17 -197 4
-20 20 -19 1312 1 1335 19 24 182 24 205 1z"/>
<path d="M3510 1205 l0 -945 284 0 c229 0 292 3 327 15 78 28 118 83 139 190
8 43 10 265 8 780 -3 660 -5 724 -21 766 -21 54 -78 112 -126 128 -22 7 -134
11 -322 11 l-289 0 0 -945z m494 673 c14 -20 16 -101 16 -675 0 -640 0 -653
-20 -673 -18 -18 -33 -20 -130 -20 l-110 0 0 695 0 695 114 0 c107 0 116 -1
130 -22z"/>
<path d="M4820 2144 c0 -3 -61 -424 -135 -936 -74 -512 -135 -935 -135 -940 0
-4 55 -8 123 -8 l123 0 13 108 c6 59 17 146 23 195 l11 87 148 0 c146 0 149 0
153 -23 6 -26 46 -337 46 -354 0 -10 32 -13 125 -13 84 0 125 4 125 11 0 6
-63 426 -140 933 -77 507 -140 927 -140 934 0 9 -44 12 -170 12 -93 0 -170 -3
-170 -6z m229 -786 c32 -238 56 -436 54 -440 -2 -5 -53 -8 -114 -8 -80 0 -109
3 -109 13 -1 27 104 876 108 872 2 -2 30 -199 61 -437z"/>
<path d="M5740 1205 l0 -945 110 0 110 0 1 653 c0 358 3 645 7 637 3 -8 44
-208 92 -445 l86 -430 100 -3 100 -3 83 423 c45 233 86 434 91 448 5 14 9
-253 9 -627 l1 -653 110 0 110 0 0 945 0 945 -138 0 -139 0 -102 -507 c-57
-280 -108 -530 -115 -558 l-13 -50 -10 50 c-6 28 -57 278 -114 558 l-103 507
-138 0 -138 0 0 -945z"/>
<path d="M7120 1205 l0 -945 110 0 110 0 1 653 c0 358 3 645 7 637 3 -8 44
-208 92 -445 l86 -430 100 -3 100 -3 83 423 c45 233 86 434 91 448 5 14 9
-253 9 -627 l1 -653 110 0 110 0 0 945 0 945 -138 0 -139 0 -102 -507 c-57
-280 -108 -530 -115 -558 l-13 -50 -10 50 c-6 28 -57 278 -114 558 l-103 507
-138 0 -138 0 0 -945z"/>
<path d="M8690 2144 c0 -3 -61 -424 -135 -936 -74 -512 -135 -935 -135 -940 0
-4 55 -8 123 -8 l123 0 13 108 c6 59 17 146 23 195 l11 87 148 0 c146 0 149 0
153 -23 6 -26 46 -337 46 -354 0 -10 32 -13 125 -13 84 0 125 4 125 11 0 6
-63 426 -140 933 -77 507 -140 927 -140 934 0 9 -44 12 -170 12 -93 0 -170 -3
-170 -6z m229 -786 c32 -238 56 -436 54 -440 -2 -5 -53 -8 -114 -8 -80 0 -109
3 -109 13 -1 27 104 876 108 872 2 -2 30 -199 61 -437z"/>
<path d="M9610 1205 l0 -945 284 0 c304 0 343 5 394 53 71 66 85 150 80 503
-3 261 -4 282 -25 326 -12 26 -31 53 -42 60 -20 12 -20 13 8 43 50 53 54 79
59 370 5 380 -13 454 -128 513 -43 21 -53 22 -337 22 l-293 0 0 -945z m494
679 c14 -13 16 -51 16 -264 0 -301 11 -280 -152 -280 l-108 0 0 280 0 280 114
0 c91 0 118 -3 130 -16z m0 -810 c14 -13 16 -52 16 -271 0 -225 -2 -259 -17
-275 -14 -15 -32 -18 -130 -18 l-113 0 0 290 0 290 114 0 c91 0 118 -3 130
-16z"/>
<path d="M10920 2144 c0 -3 -61 -424 -135 -936 -74 -512 -135 -935 -135 -940
0 -4 55 -8 123 -8 l123 0 13 108 c6 59 17 146 23 195 l11 87 148 0 c146 0 149
0 153 -23 6 -26 46 -337 46 -354 0 -10 32 -13 125 -13 84 0 125 4 125 11 0 6
-63 426 -140 933 -77 507 -140 927 -140 934 0 9 -44 12 -170 12 -93 0 -170 -3
-170 -6z m229 -786 c32 -238 56 -436 54 -440 -2 -5 -53 -8 -114 -8 -80 0 -109
3 -109 13 -1 27 104 876 108 872 2 -2 30 -199 61 -437z"/>
<path d="M12455 2138 c-45 -16 -102 -76 -121 -127 -14 -36 -18 -92 -22 -263
l-4 -218 126 0 126 0 0 163 c0 195 1 197 97 197 87 0 88 -2 88 -189 -1 -229
-6 -244 -231 -752 l-194 -437 0 -126 0 -126 340 0 340 0 0 130 0 130 -190 0
c-142 0 -190 3 -190 12 0 7 72 186 160 399 87 213 170 424 182 470 21 77 23
105 23 329 0 244 0 245 -27 302 -19 40 -38 65 -69 85 -42 28 -43 28 -223 30
-110 1 -193 -2 -211 -9z"/>
<path d="M13455 2131 c-53 -24 -91 -70 -110 -133 -23 -78 -23 -1509 1 -1587
20 -68 74 -124 137 -139 60 -15 358 -16 408 -1 59 18 105 62 131 127 l23 57 3
705 c2 464 -1 728 -8 773 -17 110 -56 170 -132 202 -29 12 -78 15 -225 15
-161 0 -194 -3 -228 -19z m329 -263 c14 -20 16 -99 16 -663 0 -538 -2 -644
-14 -661 -12 -16 -27 -19 -101 -19 -65 0 -88 4 -95 15 -6 9 -10 275 -10 672 0
755 -13 677 112 678 68 0 79 -2 92 -22z"/>
<path d="M14505 2138 c-45 -16 -102 -76 -121 -127 -14 -36 -18 -92 -22 -263
l-4 -218 126 0 126 0 0 163 c0 195 1 197 97 197 87 0 88 -2 88 -189 -1 -229
-6 -244 -231 -752 l-194 -437 0 -126 0 -126 340 0 340 0 0 130 0 130 -190 0
c-142 0 -190 3 -190 12 0 7 72 186 160 399 87 213 170 424 182 470 21 77 23
105 23 329 0 244 0 245 -27 302 -19 40 -38 65 -69 85 -42 28 -43 28 -223 30
-110 1 -193 -2 -211 -9z"/>
<path d="M15505 2131 c-53 -24 -91 -70 -110 -133 -23 -78 -23 -1509 1 -1587
20 -68 74 -124 137 -139 60 -15 358 -16 408 -1 59 18 105 62 131 127 l23 57 3
705 c2 464 -1 728 -8 773 -17 110 -56 170 -132 202 -29 12 -78 15 -225 15
-161 0 -194 -3 -228 -19z m329 -263 c14 -20 16 -99 16 -663 0 -538 -2 -644
-14 -661 -12 -16 -27 -19 -101 -19 -65 0 -88 4 -95 15 -6 9 -10 275 -10 672 0
755 -13 677 112 678 68 0 79 -2 92 -22z"/>
</g>
</svg>
